<svg width="40" height="40" viewBox="0 0 40 40" fill="none" xmlns="http://www.w3.org/2000/svg">
<path d="M0 10C0 4.47715 4.47715 0 10 0H30C35.5228 0 40 4.47715 40 10V30C40 35.5228 35.5228 40 30 40H10C4.47715 40 0 35.5228 0 30V10Z" fill="#155DFC"/>
<path d="M22.4 22.4L17.6 17.6" stroke="white" stroke-width="2" stroke-linecap="round" stroke-linejoin="round"/>
<path d="M26.657 29.485C26.282 29.8601 25.7733 30.071 25.2428 30.0711C24.7124 30.0711 24.2036 29.8605 23.8285 29.4855C23.4533 29.1105 23.2425 28.6018 23.2424 28.0714C23.2423 27.5409 23.453 27.0321 23.828 26.657L22.061 28.425C21.6858 28.8001 21.177 29.0109 20.6465 29.0109C20.116 29.0109 19.6071 28.8001 19.232 28.425C18.8568 28.0499 18.6461 27.541 18.6461 27.0105C18.6461 26.48 18.8568 25.9711 19.232 25.596L25.596 19.232C25.9711 18.8569 26.48 18.6461 27.0105 18.6461C27.541 18.6461 28.0498 18.8569 28.425 19.232C28.8001 19.6071 29.0109 20.116 29.0109 20.6465C29.0109 21.177 28.8001 21.6859 28.425 22.061L26.657 23.828C27.0321 23.453 27.5409 23.2424 28.0713 23.2424C28.6018 23.2425 29.1105 23.4534 29.4855 23.8285C29.8605 24.2036 30.0711 24.7124 30.071 25.2429C30.0709 25.7733 29.8601 26.282 29.485 26.657L26.657 29.485Z" stroke="white" stroke-width="2" stroke-linecap="round" stroke-linejoin="round"/>
<path d="M29.5 29.5L28.1 28.1" stroke="white" stroke-width="2" stroke-linecap="round" stroke-linejoin="round"/>
<path d="M11.9 11.9L10.5 10.5" stroke="white" stroke-width="2" stroke-linecap="round" stroke-linejoin="round"/>
<path d="M14.404 20.768C14.0289 21.1431 13.52 21.3539 12.9895 21.3539C12.459 21.3539 11.9502 21.1431 11.575 20.768C11.1999 20.3929 10.9891 19.884 10.9891 19.3535C10.9891 18.823 11.1999 18.3141 11.575 17.939L13.343 16.172C13.1573 16.3577 12.9367 16.505 12.6941 16.6054C12.4514 16.7059 12.1913 16.7576 11.9287 16.7576C11.3982 16.7575 10.8895 16.5466 10.5145 16.1715C10.3288 15.9857 10.1815 15.7652 10.0811 15.5226C9.9806 15.2799 9.92891 15.0198 9.92896 14.7571C9.92905 14.2267 10.1399 13.718 10.515 13.343L13.343 10.515C13.718 10.1399 14.2267 9.92904 14.7572 9.92895C15.0198 9.9289 15.2799 9.98059 15.5226 10.0811C15.7652 10.1815 15.9858 10.3288 16.1715 10.5145C16.3573 10.7002 16.5046 10.9206 16.6052 11.1633C16.7057 11.4059 16.7575 11.666 16.7576 11.9286C16.7576 12.1913 16.7059 12.4514 16.6054 12.6941C16.505 12.9367 16.3577 13.1572 16.172 13.343L17.939 11.575C18.3142 11.1999 18.823 10.9891 19.3535 10.9891C19.884 10.9891 20.3929 11.1999 20.768 11.575C21.1432 11.9501 21.3539 12.459 21.3539 12.9895C21.3539 13.52 21.1432 14.0289 20.768 14.404L14.404 20.768Z" stroke="white" stroke-width="2" stroke-linecap="round" stroke-linejoin="round"/>
</svg>
